<?xml version="1.0" standalone="no"?>
<!DOCTYPE svg PUBLIC "-//W3C//DTD SVG 20010904//EN"
 "http://www.w3.org/TR/2001/REC-SVG-20010904/DTD/svg10.dtd">
<svg version="1.0" xmlns="http://www.w3.org/2000/svg"
 width="2200.000000pt" height="2200.000000pt" viewBox="0 0 2200.000000 2200.000000"
 preserveAspectRatio="xMidYMid meet">
<metadata>
Created by potrace 1.14, written by Peter Selinger 2001-2017
</metadata>
<g transform="translate(0.000000,2200.000000) scale(0.100000,-0.100000)"
fill="#000000" stroke="none">
<path d="M10835 20029 c3 -4 18 -5 35 -4 17 1 28 0 25 -3 -10 -10 -75 -9 -75
1 0 6 -5 6 -12 0 -7 -6 -32 -9 -55 -8 -24 1 -43 -3 -43 -9 0 -6 -5 -5 -12 2
-9 9 -15 7 -25 -6 -14 -16 -14 -16 -9 1 3 9 1 17 -3 17 -5 0 -11 -5 -13 -12
-6 -16 -41 -19 -50 -5 -5 8 -8 7 -8 -4 0 -11 -11 -15 -46 -14 -31 1 -48 -3
-51 -12 -3 -8 -12 -12 -19 -9 -8 3 -14 0 -14 -7 0 -8 -4 -6 -10 3 -9 13 -10
13 -10 0 0 -12 -2 -13 -9 -1 -7 11 -11 10 -20 -5 -7 -13 -10 -15 -11 -5 0 11
-4 9 -15 -5 -10 -13 -14 -14 -15 -5 0 10 -3 11 -14 2 -7 -6 -22 -8 -31 -4 -13
4 -16 3 -11 -5 7 -11 3 -14 -26 -16 -7 -1 -19 -8 -26 -16 -12 -13 -13 -13 -8
4 6 16 4 17 -9 6 -8 -7 -15 -9 -15 -4 0 5 -7 1 -15 -10 -7 -10 -18 -15 -24
-11 -6 3 -11 1 -11 -6 0 -7 -3 -9 -7 -6 -3 4 -17 0 -30 -8 -13 -9 -27 -13 -32
-10 -5 2 -12 -2 -15 -11 -4 -10 -12 -14 -22 -10 -12 5 -15 2 -10 -11 6 -15 5
-16 -5 -5 -17 16 -35 16 -21 -1 8 -10 6 -13 -8 -13 -10 0 -16 4 -14 8 3 4 -2
5 -11 2 -9 -4 -14 -12 -11 -19 3 -8 -4 -11 -20 -9 -13 1 -24 -2 -24 -7 0 -6
-4 -7 -10 -4 -5 3 -10 1 -10 -5 0 -6 -4 -8 -10 -5 -5 3 -10 1 -10 -5 0 -6 -4
-8 -10 -5 -5 3 -10 -1 -10 -9 0 -9 -5 -16 -11 -16 -5 0 -7 6 -4 13 4 6 0 4 -8
-5 -8 -10 -18 -14 -22 -10 -5 4 -5 -1 -2 -10 4 -13 2 -15 -10 -11 -11 4 -14 2
-9 -5 4 -7 2 -12 -3 -12 -6 0 -11 5 -11 10 0 6 -5 10 -12 10 -6 0 -8 -3 -5 -7
10 -9 -31 -35 -43 -28 -6 4 -9 1 -8 -7 2 -7 -7 -14 -20 -16 -12 -2 -20 -8 -17
-13 6 -8 -17 -14 -39 -10 -5 1 -4 -4 2 -12 10 -12 8 -14 -13 -12 -16 2 -25 -2
-25 -10 0 -8 -5 -17 -12 -21 -7 -5 -9 -2 -4 7 4 8 -1 4 -10 -8 -9 -13 -24 -23
-33 -23 -9 0 -22 -9 -29 -20 -7 -11 -18 -17 -27 -14 -11 4 -13 2 -9 -9 4 -12
-1 -15 -19 -13 -19 2 -24 -1 -19 -12 3 -10 1 -13 -6 -8 -7 4 -12 2 -12 -3 0
-6 -15 -18 -32 -26 -18 -8 -24 -13 -13 -10 19 5 20 5 1 -10 -10 -8 -22 -12
-26 -10 -5 3 -11 -2 -14 -11 -4 -9 -13 -14 -21 -10 -8 3 -14 2 -14 -2 3 -20
-2 -33 -11 -27 -5 3 -10 1 -10 -5 0 -6 -5 -8 -12 -4 -8 5 -9 2 -5 -10 4 -9 3
-14 -2 -11 -5 3 -12 1 -16 -5 -4 -6 -11 -7 -17 -4 -7 5 -9 1 -5 -9 6 -17 -18
-31 -35 -20 -7 3 -8 1 -4 -5 3 -6 -2 -16 -14 -22 -11 -6 -27 -23 -35 -38 -9
-15 -14 -19 -11 -9 3 11 2 15 -4 12 -6 -3 -10 -13 -10 -20 0 -17 -34 -37 -45
-27 -5 4 -5 -1 -2 -10 4 -11 0 -19 -14 -23 -10 -4 -24 -15 -30 -26 -5 -11 -15
-16 -21 -13 -7 5 -9 0 -6 -13 5 -17 2 -20 -16 -15 -11 3 -18 2 -14 -3 4 -4
-13 -26 -37 -50 -24 -23 -41 -46 -37 -50 4 -5 -2 -5 -13 -1 -11 4 -17 4 -13 1
3 -4 -12 -24 -34 -45 -22 -22 -37 -44 -33 -50 4 -6 -1 -7 -11 -3 -11 4 -15 3
-10 -5 3 -6 -3 -17 -15 -26 -14 -9 -18 -19 -13 -28 5 -9 2 -8 -11 2 -11 9 -16
10 -11 3 4 -7 2 -13 -3 -13 -6 0 -11 -5 -11 -11 0 -5 5 -7 12 -3 7 4 8 3 4 -4
-4 -6 -14 -8 -23 -5 -11 4 -14 3 -9 -5 4 -7 1 -15 -8 -18 -9 -3 -13 -11 -9
-17 4 -6 0 -8 -10 -4 -10 4 -16 2 -14 -6 1 -7 -3 -11 -10 -10 -7 2 -10 -4 -7
-12 4 -9 -2 -18 -17 -24 -13 -5 -18 -10 -11 -10 10 -1 10 -4 -2 -16 -8 -8 -20
-15 -26 -15 -6 0 -8 -4 -5 -10 3 -5 1 -10 -5 -10 -6 0 -8 -4 -5 -10 3 -5 1
-10 -5 -10 -6 0 -8 -5 -4 -12 5 -8 0 -7 -11 2 -10 8 -16 10 -12 4 4 -7 0 -15
-9 -18 -13 -5 -14 -9 -3 -22 7 -8 8 -14 3 -13 -5 1 -15 1 -23 0 -11 -1 -11 -4
-1 -17 8 -8 9 -14 4 -13 -20 3 -34 -2 -34 -12 0 -7 -8 -18 -17 -26 -10 -8 -12
-11 -4 -7 9 5 12 3 7 -4 -4 -7 -15 -12 -24 -13 -13 0 -13 -2 -3 -6 10 -4 8 -9
-10 -19 -13 -7 -18 -13 -11 -14 7 0 10 -5 7 -10 -4 -6 -11 -8 -16 -5 -5 4 -9
-3 -9 -14 0 -18 -9 -25 -31 -23 -3 1 -5 -10 -4 -23 2 -18 -1 -22 -13 -18 -10
4 -14 2 -10 -2 5 -5 -1 -14 -11 -22 -12 -8 -18 -22 -16 -33 2 -11 -1 -19 -8
-17 -7 1 -11 -6 -11 -15 1 -10 -3 -16 -10 -15 -6 1 -11 -6 -11 -15 0 -20 -20
-43 -37 -43 -6 0 -13 -7 -15 -15 -4 -13 -3 -13 7 0 10 13 11 12 6 -3 -3 -10
-6 -21 -6 -23 0 -3 -5 -2 -12 2 -8 5 -9 2 -5 -9 4 -10 2 -16 -6 -14 -7 1 -12
-7 -12 -18 0 -12 -7 -20 -16 -19 -11 1 -15 -6 -13 -23 2 -17 -2 -23 -14 -21
-11 2 -16 -3 -14 -14 2 -10 -2 -18 -8 -18 -6 0 -8 -4 -5 -10 3 -5 1 -10 -6
-10 -8 0 -7 -5 2 -17 12 -15 12 -16 -3 -10 -23 8 -41 -15 -25 -33 9 -10 9 -11
0 -6 -7 4 -13 2 -13 -4 0 -6 -4 -8 -10 -5 -6 4 -7 -1 -3 -11 5 -12 3 -15 -6
-9 -11 6 -11 3 0 -16 11 -22 11 -23 -4 -10 -15 12 -17 10 -13 -17 2 -17 1 -31
-3 -30 -21 2 -31 -4 -31 -22 0 -10 -10 -28 -22 -40 -15 -14 -18 -20 -7 -20 8
-1 3 -7 -11 -15 -15 -9 -19 -14 -10 -15 13 0 13 -2 0 -9 -8 -6 -19 -7 -25 -3
-5 3 -3 -3 5 -13 14 -17 13 -18 -4 -12 -16 6 -17 5 -6 -8 10 -12 9 -15 -6 -15
-16 0 -17 -2 -4 -10 11 -7 11 -10 2 -10 -7 0 -11 -4 -8 -9 3 -5 -1 -12 -10
-15 -8 -3 -12 -10 -9 -16 3 -5 1 -10 -5 -10 -6 0 -8 -5 -4 -12 5 -8 2 -9 -11
-4 -15 5 -16 4 -5 -9 8 -10 9 -15 1 -15 -6 0 -10 -6 -8 -12 1 -7 -4 -12 -12
-10 -11 2 -12 0 -3 -11 10 -11 9 -17 -5 -28 -17 -13 -17 -13 -3 6 14 19 14 19
-3 6 -12 -10 -14 -17 -7 -26 8 -10 4 -18 -13 -32 -13 -10 -22 -24 -19 -32 3
-9 0 -11 -8 -6 -9 6 -11 4 -6 -4 5 -7 0 -21 -9 -31 -9 -10 -14 -24 -10 -29 3
-6 1 -11 -4 -11 -6 0 -11 -7 -11 -16 0 -8 -4 -12 -10 -9 -14 9 -12 -8 3 -24 9
-11 9 -13 0 -7 -8 5 -13 1 -13 -9 0 -9 -5 -13 -10 -10 -6 4 -9 3 -8 -2 1 -4
-3 -18 -10 -29 -6 -12 -8 -24 -5 -28 3 -3 1 -6 -5 -6 -6 0 -9 -9 -7 -21 3 -16
0 -19 -12 -15 -14 6 -14 4 -2 -11 8 -9 9 -14 2 -10 -14 9 -28 -27 -17 -44 4
-7 3 -9 -3 -6 -5 3 -17 -3 -26 -14 -9 -10 -13 -19 -8 -19 5 0 12 -7 15 -16 6
-15 4 -15 -11 -3 -10 7 -15 9 -10 4 4 -4 0 -19 -9 -33 -9 -13 -11 -21 -5 -18
6 4 11 3 11 -2 0 -6 -7 -13 -16 -16 -9 -3 -14 -12 -11 -20 3 -8 3 -17 -1 -21
-4 -4 -7 -12 -7 -18 -1 -7 -6 -11 -12 -10 -6 1 -10 -6 -10 -15 0 -34 -3 -43
-12 -38 -5 4 -8 -5 -7 -19 2 -15 -1 -22 -7 -18 -6 4 -8 0 -4 -11 4 -10 3 -15
-3 -11 -6 3 -10 -2 -10 -12 0 -11 -6 -25 -12 -32 -11 -11 -10 -12 2 -6 12 7
13 6 3 -7 -7 -8 -10 -18 -6 -22 4 -4 -1 -4 -12 0 -11 4 -17 4 -13 -1 4 -4 2
-15 -5 -23 -9 -13 -9 -14 1 -8 6 4 12 3 12 -2 0 -6 -7 -13 -16 -16 -9 -4 -14
-13 -10 -21 3 -8 1 -15 -5 -15 -6 0 -7 -5 -4 -10 4 -6 1 -17 -5 -25 -7 -8 -9
-22 -6 -31 5 -14 4 -15 -8 -5 -11 10 -14 9 -12 -1 1 -7 5 -19 9 -25 6 -9 3
-11 -10 -6 -10 3 -15 3 -11 -2 4 -4 3 -14 -3 -22 -9 -10 -8 -13 2 -13 9 0 10
-3 3 -8 -6 -4 -13 -15 -17 -25 -4 -10 -12 -15 -18 -11 -8 4 -8 0 0 -15 8 -14
8 -21 1 -21 -5 0 -9 -6 -7 -12 1 -7 -4 -12 -11 -10 -9 2 -10 -3 -3 -15 6 -13
4 -24 -9 -40 -10 -12 -19 -20 -21 -18 -2 2 -5 -14 -6 -36 0 -22 -6 -46 -12
-53 -6 -7 -8 -16 -4 -19 3 -4 -1 -7 -11 -7 -9 0 -14 -5 -11 -10 4 -6 11 -7 17
-4 7 4 8 2 4 -5 -4 -6 -12 -9 -17 -6 -5 4 -9 -3 -9 -15 0 -12 -4 -18 -10 -15
-7 4 -7 -3 0 -20 7 -19 7 -24 -2 -19 -8 5 -9 2 -5 -10 4 -9 3 -15 -2 -12 -5 3
-11 -1 -14 -8 -3 -8 -1 -17 6 -20 9 -3 8 -5 -1 -5 -7 -1 -11 -5 -7 -10 3 -5
-2 -17 -11 -25 -11 -12 -12 -16 -2 -16 10 0 9 -3 -2 -10 -8 -5 -10 -10 -5 -10
6 0 3 -5 -7 -10 -10 -7 -14 -17 -10 -32 3 -13 1 -19 -5 -15 -6 4 -9 -7 -8 -28
2 -19 -1 -32 -6 -29 -5 3 -9 0 -9 -6 0 -6 -5 -8 -12 -4 -10 6 -10 5 -1 -7 14
-17 11 -51 -5 -57 -6 -2 -8 -10 -5 -19 4 -10 2 -14 -4 -10 -6 4 -11 1 -10 -6
1 -39 -4 -67 -12 -63 -5 4 -8 -5 -6 -20 2 -19 -1 -24 -13 -19 -12 4 -12 3 -3
-9 8 -10 9 -16 1 -21 -6 -3 -8 -11 -5 -16 4 -5 1 -9 -6 -9 -8 0 -7 -5 2 -17 8
-9 9 -14 3 -10 -16 10 -25 -18 -11 -32 9 -9 8 -11 -4 -6 -13 5 -15 1 -12 -19
3 -14 1 -26 -5 -26 -6 0 -9 -11 -7 -25 2 -19 -1 -23 -10 -15 -8 7 -11 5 -10
-8 0 -9 4 -22 7 -28 10 -15 -8 -38 -22 -29 -9 6 -11 4 -4 -6 13 -21 14 -39 2
-39 -6 0 -8 -9 -5 -21 4 -16 2 -19 -10 -15 -13 5 -14 4 -3 -9 10 -12 9 -16 -6
-22 -16 -6 -16 -7 2 -14 18 -7 18 -8 0 -8 -14 -1 -16 -4 -7 -15 8 -10 5 -19
-14 -40 -13 -14 -20 -26 -15 -26 6 0 10 -7 10 -16 0 -8 -4 -13 -8 -10 -5 3 -9
-1 -9 -9 0 -8 5 -11 11 -8 7 5 7 2 0 -8 -6 -8 -10 -25 -8 -39 1 -14 0 -19 -2
-12 -3 6 -9 12 -14 12 -10 0 -8 -20 4 -39 7 -10 6 -12 -4 -6 -10 6 -12 4 -7
-8 4 -10 2 -17 -5 -17 -7 0 -6 -5 2 -15 10 -12 9 -16 -5 -21 -13 -5 -14 -9 -3
-15 10 -7 10 -9 1 -9 -7 0 -13 -9 -13 -20 0 -11 -6 -20 -12 -20 -9 0 -8 -4 2
-10 13 -9 13 -11 0 -19 -8 -6 -11 -13 -7 -17 4 -4 -1 -13 -11 -20 -16 -12 -16
-14 3 -29 11 -9 15 -14 9 -11 -6 3 -16 -6 -23 -20 -6 -15 -7 -23 -1 -19 5 3
10 1 10 -4 0 -6 -8 -11 -17 -12 -11 0 -13 -3 -5 -6 6 -2 12 -9 12 -14 0 -6 -6
-7 -12 -3 -8 5 -7 0 2 -11 12 -15 12 -17 1 -10 -11 6 -13 3 -9 -13 4 -12 2
-22 -3 -22 -4 0 -5 -7 -2 -17 5 -12 3 -14 -8 -8 -11 7 -11 5 1 -10 9 -11 10
-16 3 -11 -10 5 -13 -3 -13 -31 0 -22 -6 -45 -12 -52 -7 -8 -8 -11 -2 -8 6 3
11 0 11 -8 0 -8 -4 -12 -9 -9 -4 3 -8 -5 -8 -18 0 -13 -5 -29 -12 -36 -9 -9
-9 -15 0 -24 8 -8 6 -18 -10 -41 -12 -17 -17 -28 -11 -24 6 4 14 0 17 -9 3 -8
2 -12 -4 -9 -6 3 -10 3 -11 -2 0 -4 -2 -16 -4 -25 -2 -10 2 -18 8 -18 7 0 4
-5 -6 -11 -9 -6 -15 -15 -11 -20 3 -5 0 -17 -8 -26 -11 -14 -11 -16 2 -8 13 8
13 6 1 -8 -7 -9 -11 -24 -7 -32 3 -8 1 -15 -5 -15 -6 0 -6 -7 1 -19 7 -14 7
-22 0 -26 -6 -4 -8 -10 -5 -15 3 -5 1 -11 -5 -15 -5 -3 -10 -22 -10 -41 0 -26
-3 -33 -12 -28 -10 6 -10 4 0 -8 8 -10 9 -18 3 -22 -6 -4 -7 -14 -4 -24 6 -15
5 -16 -12 -2 -18 15 -18 14 -1 -12 16 -25 16 -27 -1 -37 -12 -7 -13 -10 -4
-11 11 0 11 -3 0 -17 -12 -15 -12 -16 1 -8 11 6 10 3 -3 -12 -9 -11 -15 -22
-12 -25 12 -11 13 -48 2 -45 -7 1 -11 -15 -12 -45 0 -27 -4 -48 -8 -48 -5 0
-6 -13 -4 -29 3 -18 0 -32 -6 -34 -9 -3 -8 -10 1 -27 10 -16 10 -20 1 -15 -8
6 -10 -1 -7 -23 3 -19 0 -28 -7 -26 -6 3 -11 -4 -11 -15 0 -11 3 -18 7 -15 4
2 6 -4 4 -13 -2 -10 -4 -22 -4 -26 -1 -5 -6 -5 -13 -1 -7 4 -8 3 -4 -4 4 -7 9
-21 11 -31 3 -15 0 -18 -13 -14 -15 6 -15 5 -3 -11 13 -15 13 -19 0 -27 -12
-7 -12 -9 1 -9 13 0 13 -1 0 -11 -11 -8 -12 -12 -3 -16 10 -3 9 -8 -2 -20 -20
-20 -19 -34 3 -26 13 5 12 2 -5 -13 -20 -18 -20 -21 -5 -32 9 -7 12 -10 6 -7
-7 2 -14 -2 -18 -10 -3 -8 0 -15 6 -15 7 0 3 -7 -8 -16 -10 -8 -13 -13 -6 -9
7 4 12 0 12 -10 0 -9 -4 -14 -9 -10 -5 3 -13 1 -16 -5 -4 -6 -1 -9 6 -8 9 2
14 -8 14 -29 1 -17 -1 -32 -4 -31 -19 2 -24 -4 -11 -12 9 -6 11 -10 3 -10 -7
0 -10 -7 -6 -17 4 -11 3 -14 -5 -9 -7 4 -12 3 -12 -3 0 -5 6 -12 13 -14 9 -4
9 -6 0 -6 -9 -1 -10 -8 -3 -27 9 -23 8 -25 -7 -20 -16 6 -16 5 1 -13 13 -14
14 -21 5 -27 -8 -5 -10 -3 -4 6 5 8 4 11 -2 7 -5 -3 -9 -31 -9 -61 1 -45 -2
-55 -13 -51 -11 4 -11 1 2 -13 15 -17 15 -20 0 -42 -9 -13 -11 -20 -5 -16 7 4
12 3 12 -3 0 -5 -5 -13 -10 -16 -8 -5 -7 -11 1 -21 9 -11 8 -14 -2 -14 -10 0
-10 -3 -1 -12 9 -9 8 -16 -4 -29 -12 -13 -12 -19 -3 -25 8 -5 10 -3 4 6 -6 9
-4 11 5 5 10 -6 9 -11 -4 -20 -16 -12 -16 -14 1 -31 17 -17 17 -17 -5 -12 -23
7 -24 6 -5 -14 10 -12 13 -18 7 -15 -15 9 -25 -16 -14 -33 5 -8 5 -21 0 -30
-6 -11 -5 -22 3 -30 8 -9 8 -11 1 -7 -15 9 -27 -20 -12 -29 7 -5 8 -2 3 6 -6
9 -4 11 4 5 9 -5 10 -10 2 -18 -14 -14 -15 -40 -1 -32 6 3 7 -1 4 -9 -3 -9
-11 -13 -18 -9 -6 4 -4 -2 4 -12 8 -10 10 -16 3 -12 -6 4 -14 3 -17 -2 -4 -5
-1 -13 5 -17 8 -4 9 -3 5 4 -5 8 -1 10 9 5 9 -3 13 -9 8 -12 -12 -9 -36 -54
-25 -47 6 3 12 -1 16 -9 3 -8 0 -17 -6 -21 -7 -5 -8 -2 -3 6 5 9 4 11 -4 6 -9
-6 -9 -11 -1 -21 8 -10 8 -15 -1 -21 -8 -5 -9 -3 -4 6 5 9 4 11 -3 6 -17 -10
-15 -15 11 -26 15 -6 17 -9 5 -9 -17 -1 -19 -16 -4 -40 6 -10 5 -12 -2 -7 -11
7 -17 -7 -12 -29 1 -5 3 -29 4 -52 1 -33 -2 -43 -14 -44 -10 0 -11 -2 -2 -6 6
-2 12 -21 12 -41 0 -28 -3 -33 -10 -22 -5 8 -10 10 -10 4 0 -6 3 -14 7 -18 11
-10 12 -36 2 -36 -5 0 -9 -7 -9 -16 0 -8 4 -13 8 -10 5 3 9 -1 9 -9 0 -8 -4
-12 -8 -10 -3 3 -9 -4 -12 -16 -5 -17 -3 -18 11 -7 14 11 15 10 9 -5 -4 -10
-7 -21 -7 -23 0 -3 -6 -2 -12 2 -7 4 -4 -3 6 -15 20 -22 20 -22 0 -15 -17 7
-17 6 -5 -9 9 -12 10 -17 2 -17 -7 0 -9 -5 -6 -10 4 -6 11 -8 16 -5 5 4 9 1 9
-4 0 -6 -6 -11 -14 -11 -11 0 -12 -8 -6 -34 5 -22 3 -39 -4 -46 -8 -9 -8 -14
2 -17 10 -4 8 -9 -5 -20 -10 -8 -12 -12 -5 -8 9 5 13 -3 12 -27 0 -18 0 -40 0
-48 1 -8 -1 -27 -3 -43 -2 -15 -1 -30 3 -32 10 -6 1 -45 -14 -64 -8 -11 -8
-13 2 -7 6 4 12 3 12 -1 0 -5 -6 -15 -12 -22 -10 -11 -10 -13 0 -7 15 9 16 -6
0 -22 -7 -7 -8 -16 -1 -24 14 -19 9 -44 -7 -40 -12 3 -12 0 1 -15 18 -21 18
-49 0 -45 -7 1 -10 -2 -6 -8 3 -6 11 -8 16 -5 5 4 9 -1 9 -10 0 -9 -4 -14 -8
-11 -5 3 -9 -1 -9 -9 0 -8 3 -12 7 -10 4 2 7 -3 7 -11 0 -8 -6 -13 -13 -10 -8
3 -11 0 -7 -9 3 -8 10 -12 17 -9 6 3 2 -2 -8 -10 -20 -16 -20 -16 0 -16 16 0
17 -2 4 -10 -10 -6 -11 -10 -2 -10 16 0 11 -22 -8 -37 -8 -6 -12 -15 -7 -19 4
-4 7 -2 7 4 0 7 5 12 10 12 12 0 9 -22 -4 -31 -13 -10 3 -31 17 -22 9 5 9 3 1
-8 -5 -8 -9 -29 -9 -47 1 -25 -2 -31 -13 -27 -13 5 -13 3 -1 -11 15 -18 21
-76 7 -68 -4 3 -8 0 -8 -5 0 -6 5 -11 11 -11 5 0 7 -5 4 -10 -4 -6 -12 -8 -18
-4 -7 3 -4 -1 6 -9 23 -19 23 -29 0 -38 -17 -7 -16 -8 2 -8 17 -1 17 -3 5 -11
-8 -5 -10 -10 -4 -10 5 0 10 -11 10 -24 0 -14 -3 -23 -6 -21 -4 2 -7 -2 -7
-10 0 -8 4 -12 9 -9 4 3 8 0 8 -5 0 -6 -5 -11 -11 -11 -8 0 -7 -6 2 -17 10
-11 10 -14 2 -9 -7 4 -13 2 -13 -3 0 -6 4 -11 9 -11 5 0 8 -11 7 -24 0 -13 -4
-22 -8 -19 -5 2 -8 -1 -8 -6 0 -6 4 -11 9 -11 6 0 9 -9 8 -20 -1 -11 -5 -20
-9 -20 -4 0 -8 -5 -8 -11 0 -5 5 -7 10 -4 13 8 13 -1 0 -26 -9 -15 -7 -19 7
-19 10 0 14 -4 8 -8 -5 -4 -10 -16 -9 -27 0 -11 -5 -26 -10 -34 -8 -11 -8 -13
2 -7 6 4 12 3 12 -1 0 -5 -6 -15 -12 -22 -10 -11 -10 -13 0 -7 7 4 12 2 12 -6
0 -8 -6 -20 -12 -27 -11 -11 -10 -12 0 -6 10 5 13 2 11 -11 -2 -11 1 -25 5
-33 7 -11 5 -13 -9 -7 -15 5 -16 4 -6 -8 7 -8 10 -19 7 -25 -3 -5 0 -12 6 -14
8 -3 5 -6 -5 -6 -17 -1 -17 -2 -2 -17 12 -13 13 -19 5 -24 -9 -6 -7 -11 6 -19
16 -9 16 -10 3 -11 -12 0 -15 -7 -11 -27 2 -16 10 -34 16 -42 8 -11 8 -13 -1
-7 -9 5 -13 0 -13 -14 0 -12 4 -19 8 -16 4 2 8 -11 8 -29 0 -18 -4 -31 -8 -29
-4 3 -8 0 -8 -5 0 -6 5 -11 10 -11 6 0 10 -4 10 -10 0 -5 -8 -7 -17 -3 -12 4
-10 -1 7 -16 14 -12 19 -19 11 -15 -10 5 -13 3 -8 -8 3 -9 0 -21 -6 -28 -9
-10 -9 -11 1 -5 11 6 13 -4 11 -45 -2 -36 1 -54 12 -61 11 -6 11 -9 1 -9 -9 0
-11 -7 -7 -21 5 -14 4 -19 -4 -15 -7 5 -9 1 -5 -8 3 -9 11 -13 18 -9 6 3 6 1
-1 -8 -15 -15 -18 -33 -5 -25 5 3 9 -1 9 -9 0 -8 -4 -12 -9 -9 -4 3 -8 0 -8
-5 0 -6 6 -11 13 -11 8 0 7 -4 -3 -10 -10 -6 -11 -10 -2 -10 6 0 12 -7 12 -16
0 -9 -5 -12 -12 -8 -10 6 -10 5 -1 -8 7 -8 14 -45 15 -81 1 -39 6 -63 12 -60
5 3 6 1 2 -5 -12 -20 -15 -52 -5 -52 6 0 6 -8 -1 -20 -8 -15 -8 -20 1 -20 7 0
9 -3 6 -7 -4 -3 -2 -12 4 -19 7 -8 6 -14 -2 -20 -8 -5 -9 -3 -4 6 6 9 4 11 -4
5 -9 -5 -10 -10 -2 -18 16 -16 14 -50 -1 -41 -10 6 -10 5 -1 -8 7 -8 9 -19 5
-23 -4 -5 -1 -5 6 -1 7 4 9 12 6 18 -4 7 -2 8 4 4 8 -5 9 -13 2 -25 -6 -12 -5
-22 3 -31 10 -10 9 -11 -3 -5 -13 8 -13 7 -1 -9 12 -14 12 -19 2 -25 -9 -6 -8
-11 3 -20 11 -9 13 -18 7 -30 -6 -10 -5 -23 0 -34 7 -11 6 -17 -1 -17 -7 0 -8
-6 -2 -17 5 -10 7 -23 5 -30 -2 -6 1 -14 6 -18 6 -3 11 -12 11 -18 0 -7 -4 -6
-10 3 -6 9 -10 10 -10 3 0 -6 4 -14 9 -17 5 -4 8 -21 7 -39 -1 -17 2 -42 6
-54 5 -14 3 -23 -3 -23 -6 0 -7 -5 -4 -10 4 -6 11 -7 17 -4 6 4 6 -1 -1 -14
-13 -25 -14 -35 -3 -28 5 3 9 -1 9 -8 0 -8 -5 -13 -11 -12 -6 2 -8 1 -3 -2 4
-2 12 -13 18 -24 10 -18 9 -20 -7 -14 -17 6 -17 6 -1 -12 13 -15 14 -21 4 -32
-7 -8 -8 -11 -1 -7 7 4 15 0 18 -9 3 -8 2 -12 -4 -9 -5 3 -8 -4 -7 -15 1 -11
4 -20 8 -20 13 0 18 -29 7 -36 -6 -4 -8 -3 -4 4 3 6 2 13 -3 17 -13 7 -6 -28
13 -66 8 -16 10 -27 5 -24 -5 4 -9 1 -9 -4 0 -6 6 -11 13 -11 8 0 7 -4 -3 -10
-12 -8 -12 -10 -1 -10 11 0 11 -3 0 -17 -12 -14 -12 -16 0 -8 11 6 13 3 9 -13
-4 -12 -3 -22 1 -22 4 0 6 -13 5 -30 -1 -17 3 -30 9 -30 7 0 5 -5 -3 -10 -10
-6 -11 -10 -3 -10 8 0 11 -11 9 -31 -3 -24 0 -29 13 -25 11 4 10 2 -3 -9 -11
-8 -15 -15 -8 -15 6 0 9 -7 5 -17 -4 -11 -3 -14 5 -9 7 4 12 3 12 -3 0 -5 -6
-12 -12 -14 -10 -4 -9 -6 1 -6 11 -1 11 -4 0 -18 -8 -10 -9 -14 -2 -10 20 12
26 -14 7 -29 -14 -10 -15 -14 -4 -12 10 2 14 -4 12 -16 -2 -10 2 -23 10 -27
11 -7 11 -9 0 -9 -7 0 -11 -4 -7 -10 3 -5 13 -7 23 -4 10 4 13 3 6 -3 -13 -9
-15 -44 -3 -58 4 -6 4 -17 -1 -25 -5 -9 -5 -19 2 -27 6 -7 8 -24 6 -37 -3 -16
-1 -23 7 -20 8 3 10 -9 8 -41 -2 -27 0 -44 6 -41 5 4 7 -3 3 -16 -3 -13 -1
-19 6 -15 6 4 9 0 7 -10 -2 -10 -4 -18 -5 -18 -1 0 -3 -8 -5 -18 -2 -9 0 -15
5 -12 4 3 10 -2 14 -10 3 -8 0 -15 -7 -15 -8 0 -8 -3 2 -9 11 -7 11 -9 0 -14
-9 -3 -7 -6 6 -6 15 -1 16 -4 7 -13 -14 -14 -16 -32 -3 -24 5 3 11 -3 14 -14
3 -11 1 -18 -3 -15 -5 3 -7 -2 -6 -11 1 -8 8 -19 15 -24 9 -5 10 -13 5 -21
-14 -23 -14 -42 0 -30 10 8 11 4 8 -19 -3 -19 0 -30 7 -30 7 0 9 -5 4 -12 -12
-20 -12 -39 -1 -31 7 4 9 -2 5 -16 -3 -14 0 -24 8 -27 14 -6 14 -21 1 -43 -7
-10 -6 -12 4 -6 10 6 12 4 7 -8 -4 -12 -1 -17 10 -17 14 0 14 -2 -3 -14 -18
-14 -18 -15 -1 -22 12 -4 17 -14 14 -25 -3 -10 2 -28 11 -40 8 -12 10 -19 4
-15 -7 4 -12 3 -12 -3 0 -5 6 -12 13 -14 9 -4 8 -6 -2 -6 -9 -1 -6 -8 9 -21
13 -11 19 -20 14 -20 -6 0 -16 6 -24 12 -12 11 -12 10 -2 -3 6 -9 8 -20 4 -24
-4 -5 -1 -5 7 0 9 5 12 3 9 -6 -3 -8 2 -20 11 -27 9 -8 11 -11 5 -8 -7 3 -14
-1 -18 -9 -3 -8 0 -14 6 -12 6 1 13 -4 16 -12 3 -8 0 -11 -7 -7 -7 5 -9 1 -5
-8 3 -9 11 -16 16 -16 6 0 5 -7 -2 -15 -11 -13 -10 -14 1 -10 10 4 15 -1 15
-15 0 -11 -4 -20 -9 -20 -4 0 -5 -5 -2 -10 4 -6 12 -7 18 -3 7 4 5 -2 -3 -12
-9 -11 -10 -16 -2 -11 6 4 12 2 12 -3 0 -6 -6 -11 -12 -12 -7 0 -4 -4 7 -9 12
-5 14 -9 6 -9 -11 -1 -10 -6 5 -23 10 -12 14 -19 8 -15 -6 3 -11 0 -11 -8 0
-8 4 -12 9 -9 4 3 8 -3 8 -13 0 -11 6 -25 13 -32 7 -9 8 -12 0 -7 -15 8 -11
-20 5 -36 7 -7 12 -17 12 -23 0 -5 -5 -3 -10 5 -6 9 -10 10 -10 3 0 -7 8 -17
18 -22 13 -8 14 -11 2 -11 -12 0 -12 -3 2 -11 13 -7 15 -15 8 -34 -7 -18 -6
-23 3 -19 8 3 13 -6 15 -21 1 -14 -2 -24 -7 -21 -5 4 -4 -5 2 -18 7 -13 15
-22 20 -19 4 2 7 1 6 -4 -4 -22 2 -54 9 -49 5 3 9 -1 9 -9 0 -8 -4 -12 -9 -9
-4 3 -8 0 -8 -6 0 -6 6 -13 14 -16 8 -3 12 -12 9 -20 -3 -8 -1 -14 4 -14 5 0
9 -9 9 -20 0 -11 -5 -20 -10 -20 -5 0 1 -9 14 -20 13 -11 18 -20 11 -20 -8 0
-7 -5 3 -16 18 -17 21 -28 6 -19 -16 10 -12 -12 5 -29 18 -18 20 -30 3 -21 -7
4 -2 -3 12 -14 20 -17 21 -20 5 -14 -17 6 -18 5 -7 -9 7 -9 9 -24 5 -34 -6
-17 -5 -17 10 -6 14 12 16 11 12 -7 -2 -12 1 -21 8 -21 8 0 8 -3 2 -8 -5 -4
-11 -13 -13 -21 -2 -11 0 -12 11 -3 12 10 13 8 9 -14 -3 -17 -1 -25 6 -21 6 5
9 -6 8 -27 -1 -22 3 -32 11 -29 7 3 10 -3 9 -14 -4 -25 13 -55 26 -47 7 4 8 3
4 -5 -4 -6 -11 -9 -15 -7 -3 3 -7 -4 -7 -14 0 -14 4 -16 13 -9 9 8 11 4 7 -16
-3 -17 -1 -24 6 -20 10 6 12 -1 13 -42 0 -13 4 -23 9 -23 5 0 6 -5 3 -10 -3
-6 -1 -10 5 -10 6 0 8 -5 5 -10 -4 -6 -12 -8 -18 -4 -7 3 -2 -3 10 -14 13 -12
23 -32 23 -47 0 -21 4 -26 16 -21 14 5 15 4 4 -9 -10 -12 -10 -15 1 -15 11 0
11 -2 -1 -10 -13 -8 -12 -10 4 -10 15 0 16 -3 6 -15 -10 -12 -8 -16 11 -23 16
-6 19 -11 10 -16 -9 -6 -8 -13 6 -29 10 -11 13 -18 7 -14 -6 3 -11 0 -11 -7 0
-8 6 -12 13 -9 8 3 11 -4 10 -22 -2 -14 3 -32 10 -40 8 -7 14 -21 14 -30 0
-10 5 -13 13 -9 8 5 8 2 -2 -9 -7 -9 -9 -17 -5 -17 5 0 15 -9 22 -21 8 -12 10
-19 5 -16 -5 3 -9 -5 -9 -18 0 -13 4 -21 8 -19 5 3 6 10 3 15 -3 5 0 6 8 3 7
-2 14 -11 14 -19 0 -8 -5 -11 -11 -8 -6 3 -5 0 2 -8 14 -16 16 -33 2 -24 -16
10 -11 -1 7 -16 14 -12 16 -12 8 0 -6 10 -4 12 4 7 7 -5 10 -14 7 -22 -3 -7 2
-21 11 -30 9 -9 17 -29 18 -45 1 -16 5 -32 10 -36 4 -5 5 -2 0 6 -5 10 -4 12
4 7 6 -4 9 -12 5 -17 -3 -6 2 -19 12 -30 9 -10 14 -22 11 -26 -4 -3 -7 -1 -7
5 0 7 -6 12 -12 12 -8 -1 -5 -8 7 -18 11 -9 20 -23 21 -29 2 -30 5 -34 17 -27
9 6 9 5 1 -7 -9 -11 -9 -17 1 -26 7 -6 16 -9 20 -5 4 4 2 -4 -5 -17 -8 -15 -8
-21 -1 -17 10 6 16 -20 12 -46 0 -5 5 -8 13 -8 9 0 13 -9 12 -25 -2 -15 1 -22
7 -18 6 4 8 0 5 -9 -4 -8 -2 -21 4 -29 7 -11 8 -9 3 6 -4 13 -3 17 4 10 5 -6
11 -26 12 -46 2 -26 7 -35 16 -32 9 4 11 0 7 -11 -4 -11 2 -24 16 -36 15 -13
18 -20 9 -20 -11 0 -11 -2 1 -10 8 -5 11 -10 6 -10 -4 0 -1 -11 8 -25 9 -14
14 -31 9 -38 -5 -9 -3 -9 8 0 16 13 19 8 20 -40 0 -11 5 -17 13 -14 10 4 12
-1 8 -15 -3 -13 -1 -19 5 -15 6 4 9 -3 8 -18 -2 -13 3 -29 11 -36 7 -6 12 -15
9 -19 -3 -4 2 -13 10 -20 8 -7 15 -18 15 -26 0 -7 6 -17 13 -21 6 -4 12 -15
12 -23 0 -9 7 -14 20 -12 l20 4 -20 -16 c-18 -14 -19 -15 -2 -16 11 0 15 -4
11 -12 -5 -8 -2 -9 11 -4 15 5 16 4 5 -9 -8 -10 -9 -15 -1 -15 6 0 10 -3 10
-7 -4 -23 2 -43 11 -38 5 3 12 -7 16 -22 3 -15 13 -34 22 -41 13 -10 13 -12 1
-12 -8 -1 -3 -7 11 -15 14 -8 19 -14 11 -15 -10 0 -7 -6 7 -19 12 -10 22 -28
22 -40 0 -11 5 -21 11 -21 6 0 9 -7 6 -14 -4 -10 -1 -13 7 -10 15 6 30 -22 20
-37 -3 -5 1 -9 9 -9 19 0 30 -27 14 -34 -9 -3 -9 -5 1 -5 6 -1 12 -7 12 -15 0
-8 7 -17 16 -20 8 -3 12 -10 9 -16 -3 -5 -1 -10 5 -10 6 0 8 -4 5 -10 -3 -6 1
-7 10 -4 11 5 14 2 9 -10 -4 -10 -1 -16 9 -16 10 0 13 -7 10 -20 -3 -13 1 -22
11 -26 12 -5 14 -10 6 -19 -9 -11 -6 -12 12 -8 16 3 19 2 10 -5 -11 -7 -10
-10 3 -16 9 -3 15 -13 12 -20 -3 -8 1 -17 9 -20 10 -4 13 -2 8 7 -4 7 -3 8 2
4 5 -5 9 -16 9 -25 0 -9 5 -16 12 -15 6 1 14 -4 17 -13 3 -8 2 -12 -3 -9 -5 3
-13 1 -16 -5 -4 -6 -1 -9 7 -8 7 2 12 -3 10 -11 -2 -9 3 -11 14 -7 13 5 15 2
11 -14 -3 -11 -2 -18 3 -15 4 3 14 -3 21 -12 12 -14 12 -16 0 -8 -10 6 -12 4
-7 -4 5 -7 14 -10 20 -8 8 3 12 -3 11 -16 -2 -23 11 -47 27 -47 5 0 6 6 2 13
-4 6 -3 9 1 4 5 -4 10 -18 12 -30 2 -12 8 -24 13 -25 6 -2 8 -8 4 -13 -3 -5 1
-9 9 -9 8 0 18 -7 21 -16 4 -10 2 -13 -7 -8 -6 4 -3 -2 8 -13 11 -11 23 -19
27 -16 4 2 5 -3 2 -11 -4 -11 0 -16 12 -16 16 0 17 -2 4 -10 -12 -8 -10 -10
10 -10 20 0 22 -2 10 -10 -13 -8 -12 -10 3 -10 10 0 15 -4 12 -10 -3 -5 -1
-10 5 -10 6 0 8 -5 5 -10 -3 -6 1 -10 9 -10 9 0 16 -8 16 -19 0 -11 4 -23 10
-26 6 -3 8 2 5 12 -3 10 2 3 11 -14 10 -18 21 -33 26 -33 4 0 8 -7 8 -15 0 -8
9 -19 21 -25 13 -7 18 -17 15 -27 -5 -13 -4 -14 8 -4 13 11 15 9 11 -7 -2 -15
3 -22 21 -26 13 -4 24 -11 24 -17 0 -6 -4 -7 -10 -4 -5 3 -10 1 -10 -4 0 -6 9
-11 20 -11 14 0 20 -7 20 -21 0 -17 3 -19 14 -10 12 10 14 8 12 -12 -2 -20 1
-24 18 -20 16 4 18 2 7 -5 -11 -8 -10 -11 7 -16 11 -4 23 -18 26 -31 4 -14 13
-25 21 -25 8 0 15 -7 15 -16 0 -8 5 -12 11 -9 6 4 9 0 7 -11 -2 -14 2 -18 17
-16 11 2 17 1 13 -3 -8 -9 14 -35 25 -28 4 2 7 -6 7 -17 0 -16 5 -20 15 -16 8
3 14 0 12 -6 -1 -7 5 -12 13 -13 8 0 17 -11 21 -25 4 -14 8 -20 8 -15 1 6 6 2
12 -7 5 -10 16 -18 24 -18 8 0 17 -4 20 -10 4 -6 -1 -7 -12 -3 -15 6 -16 5 -3
-9 8 -9 23 -14 33 -12 16 3 17 1 6 -12 -10 -12 -10 -15 2 -12 8 2 13 -2 12 -9
-2 -8 4 -10 14 -6 12 5 14 3 8 -7 -6 -10 -4 -12 8 -7 12 4 15 1 12 -14 -4 -18
-2 -19 12 -7 15 11 16 11 10 -4 -4 -13 -2 -15 10 -11 9 4 14 2 11 -3 -3 -5 0
-15 8 -22 8 -7 14 -10 14 -7 0 3 8 -3 18 -12 11 -10 16 -22 13 -28 -2 -5 3 -4
12 3 14 12 16 11 12 -6 -3 -16 1 -19 18 -15 18 4 19 3 7 -6 -11 -8 -12 -11 -2
-11 19 0 72 -52 65 -63 -3 -6 -1 -7 6 -3 16 11 64 -22 54 -37 -4 -7 2 -5 12 3
17 14 18 13 13 -8 -5 -17 -3 -21 5 -14 14 11 40 -11 29 -24 -4 -4 1 -4 11 -1
10 4 17 1 17 -7 0 -15 36 -36 67 -39 12 0 19 -5 17 -9 -3 -5 -11 -5 -17 -2 -8
5 -8 3 0 -6 12 -13 30 -20 60 -22 7 -1 10 -5 7 -10 -3 -4 0 -8 6 -8 6 0 8 -5
4 -12 -5 -8 0 -7 11 2 11 9 16 10 11 2 -5 -8 0 -12 13 -12 13 0 21 -7 21 -16
0 -14 3 -14 15 -4 13 11 14 10 9 -4 -4 -11 -1 -16 10 -16 9 0 16 -4 16 -10 0
-5 6 -7 14 -4 7 3 16 -2 19 -10 4 -9 16 -16 27 -16 11 0 23 -7 26 -15 5 -12
10 -12 27 -3 19 10 20 9 10 -3 -10 -12 -8 -17 9 -28 11 -7 17 -8 13 -2 -3 6
-1 11 4 11 6 0 11 -4 11 -10 0 -5 10 -14 21 -21 17 -9 20 -8 13 3 -6 11 -5 11
9 -1 9 -7 15 -17 12 -20 -2 -4 2 -8 10 -8 8 0 11 5 8 11 -3 6 5 1 19 -11 13
-13 32 -23 41 -23 9 0 17 -4 17 -10 0 -5 3 -9 8 -9 28 5 52 -2 46 -13 -5 -9
-2 -9 9 1 11 9 17 10 17 2 0 -6 7 -11 15 -11 8 0 15 -5 15 -11 0 -5 5 -7 10
-4 6 4 7 11 4 17 -4 7 -2 8 5 4 6 -4 9 -12 6 -17 -5 -8 16 -14 38 -10 4 0 7
-4 7 -10 0 -6 8 -9 18 -7 10 3 23 -1 31 -9 10 -12 16 -12 29 -1 9 7 13 8 9 2
-4 -7 1 -18 10 -25 12 -10 14 -10 9 -1 -4 6 -2 12 3 12 6 0 11 -4 11 -9 0 -6
9 -8 19 -6 15 3 18 -1 14 -12 -5 -13 -3 -14 17 -3 12 7 20 8 16 2 -3 -5 2 -13
12 -17 28 -12 52 -13 52 -1 0 7 3 7 8 1 8 -12 25 -16 72 -20 19 -1 42 -5 50
-8 8 -3 24 -7 35 -9 11 -2 23 -7 27 -13 5 -6 8 -5 8 3 0 6 5 12 11 12 5 0 7
-4 4 -10 -7 -11 8 -14 19 -3 9 9 46 11 41 2 -3 -4 3 -10 13 -14 22 -8 27 -7
27 4 0 5 4 13 9 18 5 4 7 4 3 -2 -3 -6 6 -15 19 -22 13 -6 22 -8 19 -3 -8 13
22 19 34 7 8 -8 11 -7 11 3 0 10 4 8 13 -5 11 -14 16 -15 22 -5 6 9 4 11 -5 5
-9 -6 -11 -4 -5 5 6 10 11 9 21 -4 9 -13 13 -14 17 -4 4 10 8 10 16 -2 9 -13
11 -12 11 5 1 19 1 19 11 2 8 -14 14 -16 25 -6 11 9 14 8 14 -2 0 -11 2 -11 9
0 8 13 12 13 27 0 16 -12 17 -12 12 2 -5 12 -1 15 19 13 14 -1 30 -9 34 -16 7
-11 9 -11 9 1 0 7 6 11 15 7 10 -3 15 1 15 12 0 13 3 12 15 -6 15 -21 17 -21
41 -5 27 18 74 24 74 10 0 -4 8 -4 18 1 9 5 23 7 31 4 8 -3 11 0 7 7 -9 14 0
14 25 1 15 -9 19 -7 19 7 0 15 1 15 13 -2 11 -14 16 -15 22 -5 5 9 4 11 -3 6
-18 -11 -14 0 5 15 11 10 14 10 9 1 -9 -16 6 -16 23 1 11 9 13 9 7 0 -4 -7 -3
-13 3 -13 5 0 12 6 15 13 5 9 7 9 12 0 3 -7 10 -13 15 -13 6 0 8 4 5 9 -7 11
11 17 51 17 17 -1 31 1 31 4 -1 18 4 21 17 10 12 -10 15 -10 15 0 0 7 7 10 15
6 10 -3 15 1 15 12 0 10 3 13 8 7 4 -5 15 -11 25 -11 14 -2 15 1 6 13 -10 11
-10 14 2 11 8 -2 17 -7 21 -13 4 -6 8 -1 8 9 0 20 0 20 15 0 13 -16 14 -16 9
-2 -4 11 -1 18 6 18 6 0 8 5 4 12 -6 9 -3 9 9 0 18 -15 41 -7 31 10 -4 7 -2 8
5 4 6 -4 18 -3 25 3 8 7 18 11 22 10 5 -2 29 4 54 11 25 7 49 13 53 12 5 -2 6
2 2 8 -3 6 -12 7 -18 4 -7 -4 -9 -3 -4 1 4 5 22 9 40 9 24 1 32 5 31 18 -2 18
16 20 28 3 5 -6 8 -5 8 3 0 6 7 12 16 12 8 0 12 4 9 10 -4 6 1 7 11 3 12 -4
15 -3 10 5 -5 8 -2 10 8 6 9 -4 16 -1 16 6 0 7 7 10 15 6 10 -3 15 1 15 12 0
15 2 15 10 2 9 -14 14 -7 11 13 -1 4 7 7 16 5 11 -2 17 2 15 10 -1 7 3 12 10
11 28 -3 38 2 38 19 0 14 2 15 10 2 7 -12 10 -12 10 -1 0 8 6 11 16 7 14 -5
15 -4 5 8 -11 13 -9 15 7 11 12 -2 23 3 26 12 4 9 13 13 22 9 10 -4 13 -2 8 6
-5 8 -2 9 11 4 15 -5 16 -4 6 8 -9 11 -9 16 0 22 8 4 9 3 5 -4 -4 -7 -2 -12 3
-12 6 0 11 5 11 11 0 8 5 7 15 -1 13 -11 14 -10 9 4 -4 11 -1 16 10 16 9 0 16
8 17 18 0 11 2 12 6 4 3 -9 10 -7 23 9 11 11 24 18 30 14 7 -4 14 2 17 14 3
11 9 19 13 16 4 -3 11 2 14 11 3 8 10 12 16 9 5 -3 10 -1 10 4 0 6 7 11 16 11
9 0 12 5 8 12 -5 7 -1 9 13 6 12 -3 20 0 20 8 0 7 -5 10 -10 7 -6 -3 -7 -1 -3
6 6 9 11 9 22 0 12 -10 13 -9 7 6 -5 15 -3 17 11 12 12 -5 19 0 26 18 5 14 12
25 15 25 4 0 4 -4 0 -9 -3 -5 0 -13 6 -17 7 -4 9 -3 6 3 -7 11 20 53 34 53 6
0 7 -5 3 -12 -4 -6 -3 -8 4 -5 5 4 8 17 5 30 -4 17 -3 19 6 7 8 -12 12 -10 20
10 5 14 10 18 11 10 1 -9 5 -6 11 8 5 13 13 20 19 17 5 -3 10 -1 10 5 0 6 4 8
10 5 6 -4 7 1 3 11 -4 12 -3 15 5 10 7 -4 12 -1 12 8 0 9 5 16 11 16 5 0 7 -5
3 -12 -4 -6 -3 -8 4 -4 6 3 9 16 7 27 -4 17 -2 19 10 9 15 -12 21 -3 16 24 -1
5 6 3 15 -5 12 -9 15 -9 10 -2 -4 7 -2 13 3 13 6 0 10 5 8 11 -1 6 4 14 12 17
9 3 11 0 6 -8 -5 -9 -4 -11 4 -6 6 4 9 12 6 17 -4 5 -1 9 5 9 6 0 8 4 5 10 -4
6 1 7 11 3 12 -4 15 -3 10 5 -4 7 -2 12 3 12 6 0 10 3 8 8 -1 4 2 7 6 7 5 0
13 8 18 17 6 10 17 18 25 18 8 0 12 4 9 10 -3 5 -2 10 2 10 5 0 18 7 29 16 10
8 12 13 4 9 -8 -4 -6 0 5 9 11 8 24 19 29 25 4 5 16 18 26 29 10 11 15 24 12
28 -4 4 1 4 12 0 14 -5 17 -2 12 9 -4 10 1 15 16 15 12 0 19 3 15 6 -3 4 2 14
11 23 11 10 12 12 2 6 -13 -9 -13 -8 -1 8 7 9 19 17 27 17 8 0 11 8 9 21 -4
17 -2 19 10 9 14 -12 20 -4 16 22 0 4 8 5 19 3 12 -2 17 1 14 10 -3 7 9 23 25
35 17 12 31 29 31 39 0 10 12 28 27 42 21 19 25 20 20 6 -4 -11 -3 -16 3 -12
6 4 8 17 6 30 -3 19 -1 22 11 18 10 -4 14 -2 10 4 -4 6 0 13 8 17 8 3 15 10
15 16 0 6 -5 8 -10 5 -16 -10 -11 1 7 16 11 10 14 10 9 1 -4 -6 -2 -12 3 -12
6 0 11 9 11 19 0 24 16 36 24 19 3 -7 3 -2 0 11 -5 20 -3 23 10 18 10 -4 15
-3 11 2 -8 14 6 41 22 41 8 0 12 4 9 9 -3 5 1 12 10 15 10 4 14 14 11 25 -3
13 0 18 8 15 11 -5 20 12 30 54 2 8 7 17 11 20 4 4 4 -1 1 -10 -3 -10 -1 -20
5 -24 6 -4 8 -3 5 3 -3 5 1 22 9 37 7 16 14 34 14 41 0 6 10 17 23 24 18 9 18
11 2 6 -19 -5 -19 -4 2 14 12 10 19 21 16 25 -4 3 -1 6 6 6 9 0 11 8 8 21 -5
17 -3 18 9 8 13 -10 14 -8 10 14 -3 20 -1 25 11 20 13 -5 15 -2 10 16 -5 19
-3 20 9 10 12 -10 15 -10 12 2 -2 8 -7 17 -13 21 -6 5 -5 8 3 8 17 0 46 28 48
47 5 31 15 45 29 39 8 -3 15 -1 15 4 0 6 -6 10 -12 10 -8 1 -6 6 4 14 10 7 15
16 11 19 -3 4 -1 7 6 7 7 0 9 5 6 10 -3 6 2 10 12 11 11 0 13 3 5 6 -9 3 -7
10 9 23 11 11 18 23 15 29 -3 5 6 19 21 30 22 16 25 23 14 30 -11 7 -9 10 9
16 18 6 20 9 9 16 -10 6 -7 9 11 10 14 0 20 3 13 5 -7 3 -9 12 -6 20 3 7 9 11
14 8 5 -3 6 3 2 12 -4 12 -3 15 6 10 6 -4 11 -4 10 1 -5 29 2 45 17 39 14 -6
15 -4 4 9 -11 13 -11 16 0 13 7 -2 15 3 18 11 3 8 0 11 -7 7 -7 -5 -9 -1 -5 8
3 9 10 13 15 11 5 -3 11 6 15 20 4 16 12 24 20 21 10 -4 11 0 4 18 -7 20 -3
29 28 57 20 18 29 30 20 26 -10 -3 -18 -2 -18 3 0 6 8 10 18 10 14 0 15 2 2
10 -13 8 -11 11 8 16 12 4 22 11 22 16 0 5 -5 6 -11 2 -6 -3 -4 4 4 17 9 13
16 28 16 34 0 5 8 12 18 16 10 4 13 8 7 8 -6 1 -11 8 -11 16 0 11 4 12 14 3
11 -8 12 -7 7 6 -4 10 -1 16 7 16 9 0 10 3 4 8 -5 4 -11 13 -13 21 -3 12 0 12
13 1 8 -7 18 -10 22 -6 3 3 2 6 -3 6 -5 0 -10 9 -10 19 0 11 4 17 8 15 4 -3 8
2 8 11 0 10 5 13 13 9 7 -5 6 0 -3 11 -9 11 -10 16 -2 11 8 -5 12 0 13 13 2
37 4 40 24 56 11 9 14 13 7 10 -11 -6 -11 -3 -1 13 7 12 18 18 24 14 5 -3 3 3
-5 13 -9 11 -10 16 -2 11 7 -4 12 -1 12 9 0 10 5 13 13 9 9 -6 9 -4 -1 8 -10
13 -10 17 0 20 11 4 11 8 0 21 -11 13 -10 15 7 10 13 -3 21 -1 21 6 0 7 -4 10
-8 7 -5 -3 -9 1 -9 9 0 8 4 12 9 9 4 -3 8 1 8 10 0 8 6 17 13 19 8 4 8 6 -3 6
-10 1 -8 5 7 16 14 10 20 24 18 41 -2 19 1 24 13 19 12 -4 13 -3 2 10 -10 12
-10 15 0 15 7 0 10 8 7 20 -3 13 -1 18 6 13 6 -4 8 0 4 9 -3 9 3 24 14 34 11
10 18 23 15 30 -3 7 2 15 11 18 12 5 13 9 4 20 -8 9 -8 16 -2 20 6 4 8 14 5
24 -5 14 -4 14 4 2 8 -10 7 -19 -1 -30 -10 -13 -10 -13 3 -3 9 6 17 24 18 39
1 15 10 36 19 46 16 18 16 19 -3 12 -16 -5 -16 -3 4 13 18 15 20 21 10 32 -11
12 -10 13 5 8 15 -6 16 -4 7 13 -9 16 -8 18 5 14 17 -7 17 16 0 28 -6 5 -3 8
7 8 9 0 20 5 24 12 5 7 3 8 -7 3 -12 -7 -12 -6 -1 7 10 13 10 17 0 21 -11 4
-10 6 0 6 7 1 10 5 7 11 -3 6 1 7 9 4 9 -3 16 -1 16 5 0 6 -6 11 -12 11 -8 1
-6 6 5 14 14 11 15 15 5 19 -8 4 -7 6 5 6 20 1 23 17 5 24 -8 3 -6 6 5 6 15 1
16 5 7 21 -8 15 -8 20 2 18 6 -2 12 2 13 7 0 6 4 16 9 24 7 10 5 12 -5 7 -8
-4 -5 0 5 8 17 14 22 29 25 74 1 7 6 10 12 6 8 -5 8 -1 0 14 -16 30 -14 34 10
21 17 -9 20 -8 13 3 -5 7 -9 23 -10 35 -1 17 2 20 12 12 10 -8 11 -5 7 12 -5
17 -3 20 8 14 12 -8 12 -6 0 8 -9 11 -10 17 -2 17 6 0 11 5 11 11 0 5 -6 7
-12 3 -10 -6 -10 -5 -1 8 7 8 9 19 5 24 -4 4 2 2 12 -6 18 -14 19 -14 6 9 -10
20 -10 23 2 18 11 -4 14 1 10 20 -4 19 -2 24 8 18 9 -6 10 -3 1 13 -9 16 -7
23 12 36 16 11 17 14 4 10 -17 -6 -17 -4 2 30 24 42 26 50 9 41 -7 -4 -5 0 4
8 10 8 15 17 11 20 -3 4 -1 7 5 7 7 0 12 5 12 11 0 5 -5 7 -12 3 -7 -4 -1 8
12 26 13 18 18 30 10 25 -10 -6 -12 -4 -7 9 4 10 7 20 7 22 0 3 6 2 13 -2 9
-5 9 -4 1 5 -13 14 3 71 19 71 5 0 4 6 -2 14 -9 11 -9 16 0 22 8 5 10 3 4 -7
-7 -12 -6 -12 6 0 11 10 11 15 2 18 -7 3 -13 9 -13 15 0 6 6 8 14 5 11 -4 13
1 10 20 -4 21 -2 24 13 19 15 -6 14 -4 -3 15 -10 12 -13 19 -6 15 7 -4 12 -1
12 9 0 10 5 13 13 9 8 -5 8 -2 -2 9 -13 16 -9 21 14 18 6 -1 1 6 -9 14 -19 14
-19 15 -2 15 15 0 16 3 6 15 -11 13 -10 14 6 8 16 -6 17 -5 6 9 -10 13 -10 19
3 31 18 19 20 31 3 21 -10 -6 -10 -5 -1 8 7 8 9 19 5 23 -4 5 -1 5 6 1 8 -5
12 2 12 23 0 18 5 31 13 31 8 0 7 4 -3 10 -10 6 -11 10 -2 10 6 0 12 7 12 16
0 9 -5 13 -12 9 -7 -4 -4 1 6 9 21 17 30 46 15 46 -6 0 -7 5 -4 10 4 6 11 8
16 5 5 -3 6 2 2 11 -5 13 -3 15 8 9 8 -5 5 2 -5 14 -20 22 -20 22 0 15 17 -7
17 -6 5 9 -11 14 -11 18 2 23 9 3 18 13 21 21 5 13 4 14 -8 4 -12 -10 -13 -9
-9 8 3 12 9 21 14 21 4 0 6 10 4 21 -2 12 0 29 5 39 6 11 5 21 -3 29 -9 10 -8
11 7 5 16 -6 18 -4 13 9 -4 10 -2 17 5 17 6 0 5 6 -3 17 -8 9 -9 14 -3 10 7
-4 14 0 18 8 3 8 1 17 -4 20 -6 4 -10 12 -10 18 0 7 4 6 11 -3 9 -12 10 -11 6
8 -4 16 0 22 11 22 15 1 15 2 -1 11 -14 8 -16 14 -7 24 7 8 8 20 4 26 -5 8 -3
9 5 4 9 -5 12 -2 9 11 -2 11 3 25 12 32 13 12 13 13 -5 7 -17 -5 -17 -3 5 20
21 23 22 25 5 19 -16 -6 -18 -5 -7 7 6 7 12 24 12 37 0 16 4 21 13 16 9 -6 9
-5 0 7 -9 12 -10 18 -1 27 8 8 8 15 -1 26 -10 12 -8 17 11 27 15 8 18 14 10
17 -10 3 -10 7 -2 17 7 8 13 29 14 47 1 18 7 43 14 56 7 12 11 22 8 22 -3 0
-1 14 4 30 7 25 6 30 -8 31 -14 0 -15 1 -2 7 9 4 15 14 14 22 0 8 5 30 12 47
8 21 9 35 3 39 -6 4 -5 11 2 21 10 12 10 16 -2 24 -11 7 -10 9 6 9 14 0 16 3
8 11 -13 13 -6 42 7 34 5 -3 11 -1 14 4 4 5 1 13 -5 17 -8 5 -9 3 -4 -6 5 -9
4 -11 -4 -6 -8 5 -9 12 -2 20 6 7 9 28 8 48 -2 24 1 34 8 32 7 -3 12 2 12 10
0 8 -5 12 -11 9 -6 -3 -5 0 2 8 16 17 16 32 0 23 -7 -5 -2 5 10 21 12 16 19
31 14 34 -5 3 -8 22 -7 41 4 52 4 52 18 44 6 -4 9 -4 5 1 -4 4 -2 15 5 23 8
10 8 13 1 9 -7 -4 -15 0 -18 9 -3 8 -2 13 3 10 5 -3 11 1 15 9 3 8 1 17 -5 21
-7 4 -5 12 5 23 9 10 12 22 6 30 -5 9 -2 24 8 40 13 19 13 23 3 16 -11 -6 -13
-4 -8 7 3 9 0 21 -6 28 -9 10 -6 9 13 0 22 -12 23 -11 13 2 -7 8 -10 18 -6 21
3 4 0 7 -7 7 -9 0 -7 5 6 15 10 8 15 15 9 15 -5 0 -10 11 -10 24 0 13 3 22 6
20 4 -2 10 3 13 12 5 12 2 15 -10 10 -13 -5 -14 -4 -6 7 7 8 8 18 4 23 -4 4 2
2 13 -6 19 -15 19 -15 2 12 -11 18 -13 26 -4 22 9 -3 13 6 12 28 0 18 4 39 10
47 7 11 7 13 -2 7 -8 -4 -13 -1 -13 9 0 9 5 13 10 10 6 -3 10 -1 10 4 0 6 -6
11 -12 11 -7 1 -2 7 11 14 20 11 21 14 7 19 -15 6 -15 9 -1 31 12 18 13 26 4
31 -8 6 -8 10 2 16 12 7 12 9 0 9 -11 0 -11 3 -1 15 10 12 10 15 -1 15 -12 0
-12 2 0 9 9 6 10 11 2 15 -8 5 -8 13 -1 26 13 25 13 33 -2 24 -7 -4 -8 -3 -4
4 4 7 15 12 24 12 10 0 13 3 7 8 -12 9 -20 46 -7 39 4 -3 8 12 8 33 0 24 -4
36 -11 32 -6 -3 -5 0 1 9 6 8 10 22 9 32 -2 9 2 17 8 17 7 0 6 5 -3 11 -11 8
-12 12 -2 16 6 2 12 9 12 14 0 6 -4 8 -9 4 -5 -3 -13 0 -17 6 -4 7 -3 10 2 6
5 -3 14 6 21 19 6 13 7 22 2 18 -5 -3 -9 2 -9 11 0 9 4 14 9 10 5 -3 13 -1 16
5 4 6 1 9 -6 8 -6 -2 -14 3 -16 10 -3 6 1 12 7 12 9 0 9 4 0 15 -10 12 -10 19
-2 27 16 16 15 31 0 23 -7 -4 -5 0 5 8 17 14 17 15 0 22 -17 6 -17 7 1 20 15
12 17 17 7 29 -7 9 -8 16 -2 20 6 4 6 18 1 36 -6 20 -5 28 1 24 6 -3 8 6 6 23
-3 16 2 35 11 46 15 16 14 17 -1 11 -13 -5 -16 -2 -11 10 3 9 9 14 13 12 4 -3
5 11 3 30 -3 22 -8 31 -16 27 -6 -3 -3 3 7 14 9 11 14 23 10 27 -4 4 -1 11 7
16 8 6 10 10 4 10 -6 0 -11 11 -11 25 0 16 4 22 11 18 7 -5 7 -2 -1 8 -7 9 -8
20 -3 29 5 8 6 19 2 25 -3 5 -7 20 -8 32 -1 18 2 21 13 12 18 -16 16 -4 -3 15
-8 9 -11 16 -5 16 6 0 10 18 9 41 -1 26 4 44 13 50 8 5 9 9 4 9 -6 0 -17 -6
-25 -12 -12 -11 -12 -10 -2 3 6 8 10 25 7 38 -2 14 0 19 7 15 7 -5 9 -2 5 8
-3 9 -3 19 1 23 3 3 7 17 8 31 1 18 -3 23 -14 19 -12 -4 -12 -2 -4 8 7 8 9 17
5 20 -3 4 0 7 8 7 12 0 12 2 0 9 -12 8 -12 12 -2 25 11 13 11 16 0 16 -12 0
-12 2 0 9 11 7 11 9 0 14 -11 3 -11 7 -2 17 9 10 9 19 2 33 -8 14 -8 18 0 13
6 -4 11 -2 11 3 0 6 -6 11 -12 11 -9 0 -8 4 2 10 8 5 10 10 3 10 -12 0 -12 17
0 38 5 7 3 12 -3 12 -8 0 -8 6 0 20 6 11 7 20 3 20 -10 0 -10 41 1 58 4 7 2
12 -5 12 -8 0 -8 4 1 15 10 12 10 15 0 15 -10 0 -10 3 0 15 10 12 10 15 -1 15
-12 0 -12 2 0 9 9 6 10 11 2 15 -7 5 -8 13 -2 25 6 10 6 23 1 31 -5 8 -4 22 1
32 6 12 6 18 0 18 -6 0 -8 7 -5 15 4 8 11 12 18 8 6 -4 4 4 -6 18 -11 17 -13
31 -7 40 12 19 11 32 -2 23 -8 -5 -8 -1 0 14 14 26 14 35 0 26 -7 -4 -6 2 1
17 10 18 10 24 1 27 -9 3 -9 7 0 18 9 11 9 14 0 14 -7 0 -9 5 -5 12 12 19 13
52 2 66 -7 7 -7 12 -1 12 5 0 10 7 10 15 0 8 -5 15 -10 15 -5 0 -4 7 3 15 10
12 10 15 0 15 -9 0 -9 4 1 17 10 11 10 14 2 9 -14 -8 -18 6 -6 18 10 10 10 76
0 76 -5 0 -4 7 3 15 10 12 10 15 0 15 -10 0 -10 3 0 15 9 11 9 15 1 15 -7 0
-9 5 -5 12 10 16 12 98 2 92 -4 -3 -4 6 2 20 5 14 6 26 2 26 -10 0 -8 42 2 58
4 7 2 12 -5 12 -8 0 -8 4 1 15 10 12 10 15 0 15 -10 0 -10 3 0 15 9 11 9 15 1
15 -9 0 -9 5 0 21 9 17 8 20 -3 13 -11 -6 -11 -5 1 9 11 14 11 17 0 17 -11 0
-11 2 1 10 12 8 12 10 -5 10 -19 1 -19 1 -2 11 9 6 15 14 12 20 -10 15 -14 49
-7 49 4 0 8 9 8 19 0 11 -4 17 -8 15 -11 -7 -10 4 4 29 10 19 9 20 -3 10 -12
-10 -15 -8 -15 7 0 10 5 16 11 14 5 -3 1 2 -9 10 -19 16 -19 16 2 16 12 0 22
5 22 10 0 6 -3 9 -7 9 -20 -3 -24 2 -13 16 7 8 9 15 5 15 -4 0 -1 8 6 18 13
15 12 16 -2 4 -14 -10 -18 -10 -22 2 -3 7 0 19 6 25 8 8 7 11 -3 11 -13 0 -13
2 0 10 13 9 13 10 0 10 -13 0 -13 1 0 10 8 5 10 10 5 10 -6 0 -11 9 -11 20 0
11 5 20 11 20 5 0 3 5 -5 10 -13 9 -13 11 0 20 8 5 10 10 4 10 -14 0 -16 57
-3 66 5 3 7 10 3 15 -3 6 -12 5 -22 -3 -14 -12 -14 -10 -3 10 7 13 10 30 7 38
-3 8 0 14 7 15 7 0 3 4 -8 9 -11 5 -15 9 -9 9 17 1 25 29 12 37 -6 4 -8 3 -4
-4 3 -6 2 -13 -3 -16 -11 -7 -9 13 3 33 5 8 4 16 -2 20 -6 3 -11 25 -10 49 0
25 4 39 10 36 6 -4 2 6 -8 22 -11 15 -13 25 -6 21 6 -5 12 -4 12 1 0 6 -7 13
-15 16 -14 5 -14 8 1 31 15 24 15 25 -2 25 -17 0 -16 1 2 15 19 15 19 15 -1 9
-19 -5 -19 -5 -3 9 17 13 16 15 -5 26 -12 6 -15 10 -6 7 20 -5 21 35 1 47 -8
5 -9 14 -4 24 10 17 4 61 -9 69 -5 3 -3 14 4 25 10 16 9 21 -3 29 -10 6 -11
10 -2 10 6 0 12 5 12 11 0 5 -4 8 -8 5 -5 -3 -9 1 -9 9 0 8 4 12 9 9 4 -3 8 0
8 5 0 6 -6 11 -12 11 -9 0 -8 4 2 10 12 8 12 10 -5 10 -19 1 -19 1 -2 11 18
10 18 12 -4 36 -20 20 -21 23 -5 17 14 -5 17 -4 12 5 -5 7 -10 27 -13 44 -3
18 -10 39 -16 47 -10 13 -10 13 4 3 13 -10 16 -10 16 2 0 8 -4 15 -8 15 -4 0
-6 8 -4 18 1 9 -5 25 -13 35 -14 16 -14 17 0 12 9 -4 19 -1 23 5 3 6 3 10 -2
9 -20 -3 -25 2 -13 16 10 12 9 16 -3 21 -9 3 -18 12 -21 20 -3 8 -2 13 3 10 5
-3 12 1 15 10 3 8 2 12 -4 9 -6 -4 -9 10 -7 35 2 23 -1 44 -6 47 -6 4 -7 1 -2
-8 5 -8 4 -10 0 -6 -11 10 -16 39 -6 32 4 -2 8 2 8 10 0 8 -4 12 -8 9 -4 -2
-7 10 -7 28 1 17 -4 34 -11 36 -8 3 -7 8 5 16 15 11 15 14 0 28 -17 17 -22 33
-8 24 4 -2 8 8 7 24 0 15 -4 26 -9 23 -5 -4 -7 3 -4 15 5 16 2 19 -11 15 -13
-5 -12 -2 4 16 11 12 15 22 10 21 -21 -5 -29 1 -15 10 12 8 12 10 1 10 -10 0
-11 3 -2 14 9 11 9 16 0 22 -8 5 -9 3 -4 -6 5 -8 4 -11 -2 -7 -6 4 -9 20 -7
36 2 17 -1 33 -7 36 -7 5 -6 12 2 21 7 9 8 14 1 14 -11 0 -10 25 1 36 3 3 -2
18 -11 32 -15 23 -21 54 -23 125 0 9 -4 15 -9 12 -10 -6 -8 15 3 33 5 6 4 12
-1 12 -14 0 -21 48 -8 54 6 2 2 5 -9 5 -17 1 -18 3 -5 12 12 8 12 12 2 16 -10
4 -10 8 0 21 10 12 10 14 1 8 -7 -4 -13 -4 -14 1 0 4 -2 16 -4 26 -2 9 1 15 6
11 5 -3 6 -10 3 -16 -5 -7 -2 -8 5 -4 9 6 9 12 -3 25 -9 10 -13 21 -9 24 3 4
1 7 -5 7 -7 0 -12 5 -12 11 0 5 4 8 8 5 10 -6 8 21 -2 46 -4 9 -5 22 -1 27 4
7 0 8 -11 4 -14 -5 -15 -3 -5 15 9 16 9 22 1 22 -7 0 -10 6 -7 13 2 6 -3 20
-11 30 -15 16 -14 17 1 11 10 -3 17 -1 17 5 0 6 -5 11 -10 11 -6 0 -10 8 -8
18 2 10 -2 16 -11 14 -12 -3 -12 0 -1 12 10 14 10 16 -6 17 -11 0 -14 3 -6 6
6 2 12 11 12 19 0 9 -4 13 -8 10 -5 -3 -9 1 -9 9 0 8 3 12 7 10 4 -2 7 2 7 10
0 8 -5 13 -10 12 -5 -1 -12 4 -15 12 -3 10 0 11 9 5 12 -7 12 -5 1 9 -8 9 -11
21 -7 27 3 5 1 10 -6 10 -10 0 -10 3 -1 12 7 7 12 17 12 23 0 5 -5 3 -11 -5
-9 -12 -10 -11 -6 7 4 17 1 20 -12 15 -14 -5 -14 -4 -2 11 11 14 11 17 0 17
-11 0 -11 2 1 10 11 7 11 10 2 10 -8 0 -12 9 -10 23 2 12 -2 21 -7 20 -6 -1
-11 9 -11 22 0 13 4 21 8 19 4 -3 8 0 8 5 0 6 -4 11 -9 11 -5 0 -8 13 -7 30 2
21 -1 27 -9 20 -8 -7 -12 -5 -12 5 0 8 5 15 11 15 6 0 5 4 -3 9 -8 5 -11 16
-8 25 4 10 1 16 -8 16 -20 0 -19 17 3 29 14 8 14 11 2 12 -8 1 -18 1 -22 0
-12 -2 -9 6 8 23 13 14 14 16 0 16 -20 0 -29 17 -15 26 8 5 9 3 4 -6 -5 -9 -4
-11 4 -6 15 10 4 26 -17 26 -10 0 -13 3 -7 8 6 4 10 17 11 28 0 16 -4 20 -15
16 -14 -5 -14 -3 -2 11 11 13 11 17 1 17 -8 0 -10 3 -7 6 3 4 1 16 -5 28 -18
32 -18 45 0 39 10 -3 6 2 -7 12 -18 14 -20 19 -10 26 9 6 10 9 2 9 -6 0 -9 9
-6 20 3 12 0 20 -6 20 -7 0 -9 -5 -5 -12 4 -7 3 -8 -5 -4 -9 6 -9 11 -1 21 8
9 6 14 -5 19 -12 4 -14 10 -6 23 7 13 5 23 -7 37 -16 18 -16 19 3 13 20 -7 20
-7 0 8 -11 9 -20 29 -21 48 -3 48 -3 49 -16 41 -8 -5 -8 -2 1 10 12 15 12 17
0 14 -9 -2 -13 4 -11 15 2 9 -3 17 -9 17 -7 0 -9 3 -6 7 4 3 1 13 -6 21 -10
13 -9 14 2 8 15 -10 10 13 -17 74 -8 19 -14 43 -13 54 2 12 -1 16 -10 11 -7
-5 -10 -4 -5 3 3 6 2 13 -4 17 -7 4 -7 12 0 25 8 15 7 18 -4 14 -10 -4 -13 2
-10 26 2 17 0 29 -5 26 -5 -3 -12 1 -15 10 -3 8 -2 12 4 9 6 -3 7 1 4 9 -3 9
-11 13 -18 9 -7 -4 -7 -1 1 7 10 11 9 16 -5 26 -16 13 -16 13 1 14 10 0 15 5
12 10 -4 6 -10 8 -15 5 -4 -3 -10 4 -13 15 -3 13 -1 18 6 13 13 -7 -12 28 -27
38 -4 4 -3 10 3 14 8 5 3 18 -16 43 -18 25 -21 32 -8 22 19 -15 19 -15 1 14
-10 16 -13 25 -6 21 9 -5 8 -1 -1 16 -7 13 -12 28 -11 33 2 5 -5 3 -14 -5 -16
-13 -16 -12 -6 8 15 28 15 36 0 27 -8 -5 -9 -2 -5 9 3 10 2 17 -4 17 -6 0 -7
5 -4 10 3 6 0 10 -7 10 -9 0 -9 3 2 10 10 6 11 10 3 10 -7 0 -13 11 -13 24 0
13 -4 26 -10 28 -5 2 -11 15 -12 29 -1 17 -7 25 -15 22 -7 -3 -13 -1 -13 5 0
6 6 13 13 15 10 4 10 6 0 6 -7 1 -13 6 -13 12 0 5 6 7 13 4 6 -4 1 3 -13 15
-14 12 -19 19 -12 15 11 -6 12 -3 3 13 -6 11 -16 23 -23 25 -9 4 -8 6 3 6 9 1
16 8 16 16 0 11 -4 12 -13 4 -8 -7 -14 -6 -20 2 -4 8 -3 9 4 5 7 -4 12 -2 12
3 0 6 -5 11 -11 11 -5 0 -8 4 -4 9 3 5 -1 16 -9 24 -10 9 -11 18 -5 26 5 6 6
9 3 6 -9 -6 -34 42 -34 65 0 10 -7 23 -15 30 -12 10 -13 16 -3 28 7 9 8 13 3
10 -6 -4 -17 -3 -25 3 -12 7 -12 9 -1 9 11 0 11 3 1 15 -9 11 -9 15 -1 15 7 0
9 5 6 10 -4 6 -11 8 -16 5 -5 -4 -9 -2 -9 4 0 5 6 12 13 14 7 3 4 6 -6 6 -10
1 -17 7 -14 14 2 6 -5 18 -17 25 -15 10 -16 12 -3 8 15 -5 16 -2 7 14 -6 11
-15 20 -19 20 -5 0 -7 10 -3 22 4 16 2 19 -8 13 -10 -6 -12 -4 -7 8 3 9 -1 18
-10 21 -9 4 -13 9 -10 13 4 3 1 13 -6 21 -10 13 -9 15 3 8 9 -4 8 -1 -2 7 -18
14 -25 33 -10 23 5 -3 9 1 9 9 0 8 -5 13 -11 12 -6 -1 -10 6 -8 17 2 10 -1 15
-7 12 -5 -4 -12 -2 -16 4 -3 5 2 10 12 10 15 0 15 2 3 9 -8 6 -19 7 -25 4 -5
-3 -5 0 2 7 10 11 9 16 -5 27 -9 8 -11 12 -5 8 9 -4 11 -1 7 9 -3 9 -10 16
-16 16 -5 0 -6 5 -3 10 3 6 0 10 -7 10 -9 0 -9 3 2 10 13 8 12 10 -2 10 -11 0
-18 8 -18 21 0 13 -4 18 -12 13 -8 -5 -8 -2 1 10 11 13 11 16 1 14 -7 -2 -15
3 -18 11 -3 8 0 11 7 7 7 -5 9 -1 5 9 -5 11 -10 13 -19 5 -11 -9 -12 -7 -8 9
3 12 1 21 -6 21 -6 0 -10 3 -10 8 5 27 -2 52 -13 46 -8 -5 -9 -2 -5 10 6 14 3
17 -9 12 -15 -6 -15 -4 -3 11 9 11 10 14 2 9 -9 -5 -13 0 -13 14 0 12 -4 18
-10 15 -9 -5 -15 23 -11 48 0 4 -4 7 -9 7 -6 0 -10 7 -10 16 0 9 -5 12 -12 8
-10 -6 -10 -4 0 8 10 13 10 17 -3 22 -11 4 -14 2 -9 -6 5 -7 3 -8 -5 -3 -9 5
-9 11 -3 17 13 13 4 38 -14 38 -8 0 -14 9 -14 20 0 11 -5 20 -11 20 -8 0 -8 4
0 14 10 11 8 16 -9 21 -15 5 -19 12 -15 26 5 13 2 17 -7 14 -9 -4 -14 2 -15
16 -1 12 -7 25 -13 29 -6 4 -12 16 -13 27 0 12 -6 19 -13 16 -8 -3 -11 2 -7
16 4 17 1 21 -18 22 -13 0 -18 3 -11 6 17 7 15 33 -4 33 -8 0 -12 5 -9 10 3 6
1 10 -4 10 -6 0 -10 3 -10 8 3 20 -2 32 -15 32 -9 0 -12 7 -10 18 3 9 -4 27
-15 39 -12 12 -21 27 -21 33 0 5 -4 10 -10 10 -5 0 -10 10 -10 23 0 18 -2 19
-10 7 -8 -12 -10 -10 -11 10 -1 14 -2 31 -2 38 1 9 -3 10 -12 2 -10 -8 -15 -8
-21 1 -4 8 -3 9 4 5 7 -4 12 -2 12 3 0 6 -4 11 -10 11 -5 0 -10 7 -10 16 0 8
-4 12 -10 9 -8 -5 -12 10 -9 43 0 4 -10 9 -23 13 -17 4 -22 11 -20 28 2 15 0
21 -7 17 -10 -6 -15 6 -12 27 0 4 -4 7 -9 7 -6 0 -10 6 -10 13 0 7 -9 23 -20
35 -11 12 -20 28 -20 37 0 8 -6 14 -12 13 -7 -2 -12 3 -10 10 2 11 -11 16 -31
13 -5 -1 -6 3 -2 9 3 6 11 7 17 4 7 -4 8 -2 4 4 -4 7 -13 12 -21 12 -8 0 -17
4 -20 10 -3 6 1 7 12 4 13 -4 13 -2 -3 8 -12 7 -19 19 -16 27 3 8 0 11 -6 7
-6 -3 -13 3 -17 14 -3 11 -14 20 -23 21 -11 0 -13 2 -4 6 9 4 7 10 -7 22 -12
10 -17 21 -14 25 4 4 0 4 -10 0 -9 -3 -17 -2 -17 4 0 6 6 13 13 15 7 3 5 6 -6
6 -10 1 -22 13 -27 27 -6 15 -14 22 -22 18 -7 -4 -8 -3 -4 4 4 7 3 12 -2 12
-5 0 -12 9 -15 21 -3 12 -10 18 -16 15 -6 -4 -8 2 -6 14 2 11 -1 19 -8 17 -7
-1 -11 3 -10 10 2 8 -4 10 -14 6 -12 -5 -15 -2 -10 10 4 11 -1 18 -14 22 -11
4 -19 15 -19 27 0 18 -2 19 -17 7 -9 -8 -14 -9 -10 -2 4 6 4 13 0 15 -5 1 -16
17 -25 33 -10 17 -24 29 -33 29 -13 -2 -14 1 -3 14 11 13 10 15 -5 9 -11 -4
-16 -3 -12 3 3 6 1 10 -5 10 -6 0 -8 5 -5 10 3 6 0 10 -8 10 -8 0 -21 8 -28
18 -13 15 -12 16 3 4 12 -10 18 -10 24 -1 4 7 3 9 -4 5 -6 -3 -17 3 -25 15
-11 15 -16 17 -20 7 -3 -7 -6 -2 -6 11 -1 20 -3 22 -16 11 -13 -11 -14 -10 -9
3 6 17 -16 47 -35 47 -10 0 -15 14 -12 33 0 4 -6 7 -14 7 -8 0 -15 4 -15 9 0
5 -9 13 -20 16 -11 3 -20 13 -20 22 0 9 -6 13 -14 10 -9 -4 -13 -1 -10 6 2 7
-7 23 -21 35 -14 12 -25 19 -25 15 0 -4 -7 3 -16 15 -8 12 -19 20 -24 17 -4
-3 -11 2 -14 11 -4 10 -2 13 6 8 7 -4 8 -3 4 4 -4 7 -13 12 -19 12 -7 0 -24
12 -39 28 -35 36 -55 52 -68 52 -6 0 -8 5 -5 10 3 6 1 11 -4 11 -6 1 -15 2
-20 3 -5 0 -13 5 -18 10 -5 5 -3 6 4 2 9 -5 11 -2 7 8 -3 8 -14 13 -25 11 -10
-2 -18 -1 -18 3 3 20 -2 32 -11 27 -5 -3 -10 -2 -10 3 0 5 -10 12 -21 15 -13
4 -20 11 -16 20 4 10 -2 13 -19 11 -18 -2 -24 3 -24 17 0 11 -4 17 -10 14 -5
-3 -10 -2 -10 3 0 6 -7 12 -14 15 -10 4 -14 1 -10 -11 2 -9 -2 -5 -9 11 -7 15
-16 24 -20 21 -4 -4 -7 -2 -7 5 0 7 -4 9 -10 6 -5 -3 -10 2 -10 12 0 15 -2 16
-10 3 -8 -12 -10 -10 -10 8 0 13 -4 21 -9 18 -4 -3 -19 3 -31 14 -12 11 -27
17 -31 14 -5 -3 -9 0 -9 6 0 6 -4 8 -10 5 -5 -3 -10 1 -10 10 0 9 -4 13 -10
10 -5 -3 -10 1 -10 11 0 13 -3 14 -14 5 -11 -10 -17 -8 -25 6 -6 10 -11 14
-11 10 0 -5 -7 -1 -16 7 -8 9 -21 13 -27 9 -6 -4 -8 0 -4 10 5 12 0 14 -21 11
-22 -4 -25 -3 -14 7 6 7 12 18 12 23 0 6 -5 4 -10 -4 -7 -11 -10 -11 -10 -2 0
7 -5 10 -12 6 -6 -4 -17 1 -24 11 -8 10 -20 15 -29 11 -11 -4 -14 -2 -9 6 5 8
2 9 -10 5 -10 -4 -15 -3 -11 3 3 6 1 10 -5 10 -6 0 -8 5 -4 13 5 7 0 6 -11 -3
-17 -14 -18 -13 -13 2 5 12 1 16 -17 14 -13 -2 -30 5 -40 16 -13 15 -19 17
-30 8 -12 -10 -13 -8 -10 9 3 14 -1 18 -11 14 -8 -3 -22 1 -31 8 -14 12 -16
12 -9 -1 6 -12 4 -11 -6 1 -7 9 -19 14 -25 12 -7 -3 -13 3 -13 14 0 15 -2 16
-10 3 -6 -10 -10 -11 -10 -3 0 7 -3 12 -7 12 -19 -3 -34 2 -29 9 3 4 -7 8 -22
8 -15 -1 -26 4 -25 11 2 7 -10 10 -32 9 -38 -3 -61 7 -51 23 4 6 2 11 -3 11
-6 0 -11 -8 -11 -17 -1 -17 -1 -17 -11 -1 -7 12 -19 16 -40 14 -24 -3 -27 -1
-18 11 10 11 8 12 -14 4 -17 -7 -28 -7 -32 0 -4 5 -11 6 -17 3 -7 -4 -8 -2 -4
4 4 7 -6 10 -33 9 -26 -2 -37 1 -34 10 3 7 -3 10 -14 9 -10 -2 -28 0 -40 5
-16 6 -23 4 -26 -9 -3 -11 -5 -8 -6 8 -1 21 -3 22 -12 10 -8 -11 -12 -12 -16
-2 -7 19 -23 14 -16 -5 5 -16 4 -15 -9 1 -10 13 -23 17 -42 14 -14 -3 -29 -1
-32 4 -4 6 -10 5 -15 -3 -6 -10 -9 -10 -9 -2 0 6 -9 10 -20 8 -11 -2 -22 0
-25 6 -4 5 -14 5 -26 -2 -22 -11 -42 -3 -22 9 6 4 -22 7 -63 8 -41 0 -69 -3
-62 -8 10 -5 8 -8 -4 -8 -10 0 -18 4 -18 8 0 4 -9 8 -20 9 -12 1 -18 -3 -14
-9 4 -6 -1 -6 -14 1 -27 14 -35 14 -26 -1 5 -7 3 -8 -6 -3 -17 10 -121 14
-115 4z m255 -9 c0 -5 -2 -10 -4 -10 -3 0 -8 5 -11 10 -3 6 -1 10 4 10 6 0 11
-4 11 -10z m60 -1 c0 -4 -9 -7 -19 -6 -11 0 -18 4 -16 7 6 9 35 8 35 -1z
m-2788 -1716 c-6 -2 -9 -10 -6 -15 4 -7 2 -8 -5 -4 -13 9 -5 26 12 25 9 0 8
-2 -1 -6z m5349 -60 c13 -16 12 -17 -3 -4 -17 13 -22 21 -14 21 2 0 10 -8 17
-17z m1620 -4500 c13 -16 12 -17 -3 -4 -10 7 -18 15 -18 17 0 8 8 3 21 -13z
m206 -3608 c0 -8 -4 -12 -9 -9 -5 3 -6 10 -3 15 9 13 12 11 12 -6z m-8890
-1580 c0 -8 -4 -12 -9 -9 -5 3 -6 10 -3 15 9 13 12 11 12 -6z m8599 -900 c-1
-8 -5 -17 -8 -21 -5 -4 -4 16 1 34 3 9 9 -1 7 -13z m-7859 -2140 c0 -8 -4 -12
-9 -9 -5 3 -6 10 -3 15 9 13 12 11 12 -6z m7067 -493 c3 -5 -1 -9 -9 -9 -8 0
-12 4 -9 9 3 4 7 8 9 8 2 0 6 -4 9 -8z m-6647 -507 c0 -8 -4 -12 -9 -9 -5 3
-6 10 -3 15 9 13 12 11 12 -6z m6048 -665 c3 -6 -1 -7 -9 -4 -18 7 -21 14 -7
14 6 0 13 -4 16 -10z m-464 -683 c-10 -9 -11 -8 -5 6 3 10 9 15 12 12 3 -3 0
-11 -7 -18z m-4026 -695 c-3 -3 -11 0 -18 7 -9 10 -8 11 6 5 10 -3 15 -9 12
-12z m156 -119 c13 -16 12 -17 -3 -4 -17 13 -22 21 -14 21 2 0 10 -8 17 -17z
m497 -288 c-3 -3 -9 2 -12 12 -6 14 -5 15 5 6 7 -7 10 -15 7 -18z m436 -143
c3 -5 -1 -9 -9 -9 -8 0 -12 4 -9 9 3 4 7 8 9 8 2 0 6 -4 9 -8z m766 -66 c0 -3
-4 -8 -10 -11 -5 -3 -10 -1 -10 4 0 6 5 11 10 11 6 0 10 -2 10 -4z"/>
<path d="M8270 18199 c0 -5 5 -7 10 -4 6 3 10 8 10 11 0 2 -4 4 -10 4 -5 0
-10 -5 -10 -11z"/>
<path d="M14888 15663 c7 -3 16 -2 19 1 4 3 -2 6 -13 5 -11 0 -14 -3 -6 -6z"/>
<path d="M6465 10960 c3 -5 8 -10 11 -10 2 0 4 5 4 10 0 6 -5 10 -11 10 -5 0
-7 -4 -4 -10z"/>
<path d="M6467 10875 c-4 -8 -3 -16 1 -19 4 -3 9 4 9 15 2 23 -3 25 -10 4z"/>
<path d="M6485 10001 c-3 -5 -2 -12 3 -15 5 -3 9 1 9 9 0 17 -3 19 -12 6z"/>
<path d="M15343 8195 c0 -8 4 -12 9 -9 5 3 6 10 3 15 -9 13 -12 11 -12 -6z"/>
<path d="M15208 7473 c7 -3 16 -2 19 1 4 3 -2 6 -13 5 -11 0 -14 -3 -6 -6z"/>
<path d="M7460 5236 c0 -2 7 -7 16 -10 8 -3 12 -2 9 4 -6 10 -25 14 -25 6z"/>
<path d="M14505 5140 c-3 -5 -1 -10 4 -10 6 0 11 5 11 10 0 6 -2 10 -4 10 -3
0 -8 -4 -11 -10z"/>
<path d="M13425 3211 c-3 -5 -2 -12 3 -15 5 -3 9 1 9 9 0 17 -3 19 -12 6z"/>
<path d="M10546 1872 c-2 -4 4 -8 14 -8 10 0 16 4 14 8 -3 4 -9 8 -14 8 -5 0
-11 -4 -14 -8z"/>
</g>
</svg>
