<?xml version="1.0" standalone="no"?>
<!DOCTYPE svg PUBLIC "-//W3C//DTD SVG 20010904//EN"
 "http://www.w3.org/TR/2001/REC-SVG-20010904/DTD/svg10.dtd">
<svg version="1.0" xmlns="http://www.w3.org/2000/svg"
 width="512.000000pt" height="512.000000pt" viewBox="0 0 512.000000 512.000000"
 preserveAspectRatio="xMidYMid meet">
<metadata>
Created by potrace 1.14, written by Peter Selinger 2001-2017
</metadata>
<g transform="translate(0.000000,512.000000) scale(0.100000,-0.100000)"
fill="#000000" stroke="none">
<path d="M2517 4104 c-1 -2 -14 -5 -27 -7 -14 -3 -36 -10 -50 -15 -14 -5 -29
-10 -33 -10 -47 -1 -287 -212 -287 -252 0 -6 -4 -10 -10 -10 -5 0 -10 -7 -10
-15 0 -8 -4 -15 -9 -15 -5 0 -12 -8 -15 -17 -6 -17 -17 -37 -41 -73 -5 -8 -10
-17 -11 -20 -1 -5 -26 -63 -50 -115 -46 -103 -114 -336 -138 -480 -3 -16 -7
-44 -10 -61 -22 -128 -29 -234 -30 -444 0 -211 10 -366 30 -463 3 -16 7 -38 9
-50 6 -44 37 -183 53 -237 9 -30 16 -57 17 -60 0 -3 9 -30 20 -60 11 -30 20
-57 20 -60 8 -30 87 -203 107 -232 10 -14 18 -29 18 -33 0 -9 104 -145 143
-187 52 -55 157 -123 223 -144 59 -19 159 -23 219 -10 120 27 275 152 369 298
20 31 36 61 36 67 0 5 3 11 8 13 9 4 57 95 67 128 4 14 16 43 25 65 25 55 71
194 85 255 0 3 6 28 13 55 6 28 14 61 16 75 2 14 10 54 16 90 13 67 14 72 26
200 9 98 10 476 1 565 -7 67 -26 203 -32 235 -2 8 -11 49 -19 90 -9 41 -24
100 -32 130 -9 30 -18 62 -19 70 -3 13 -14 43 -61 170 -3 8 -5 16 -5 17 2 11
-110 212 -147 263 -51 73 -178 200 -198 200 -8 0 -14 4 -14 9 0 17 -126 62
-198 69 -40 5 -74 7 -75 6z"/>
</g>
</svg>
